<svg width="49" height="48" viewBox="0 0 49 48" fill="none" xmlns="http://www.w3.org/2000/svg">
<path d="M25.0056 0H24.8963C11.6756 0 0.958008 10.7207 0.958008 23.9453V24.0547C0.958008 37.2793 11.6756 48 24.8963 48H25.0056C38.2263 48 48.9439 37.2793 48.9439 24.0547V23.9453C48.9439 10.7207 38.2263 0 25.0056 0Z" fill="#EA4C89"/>
<path d="M40.0054 24.6248C40.0088 24.5727 40.0104 24.5189 40.0121 24.4651L40.0407 23.7974L40.0155 23.7907C39.9667 20.2626 38.7092 16.9194 36.4413 14.2489L36.4682 14.2203L35.7537 13.4854C32.8873 10.5408 29.0492 8.91968 24.9437 8.91968C22.8355 8.91968 20.808 9.34514 18.9032 10.1809L18.8881 10.1692L18.2694 10.4752C17.4507 10.8805 16.6774 11.3547 15.9561 11.8912C15.4753 12.2494 15.018 12.6328 14.5843 13.0431C14.4229 13.1962 14.2666 13.3526 14.1119 13.5123C11.9919 15.7035 10.5528 18.5136 10.0569 21.5877L9.89718 22.5833L9.93248 22.5917C9.88877 23.0592 9.86523 23.5317 9.86523 24.0026C9.86523 27.9999 11.459 31.8325 14.2649 34.6493L14.2531 34.6711L14.8819 35.2345C17.6508 37.7167 21.2233 39.0855 24.942 39.0855C25.206 39.0855 25.4683 39.0788 25.7288 39.0654C27.558 38.9729 29.3282 38.5524 30.9993 37.8176C30.9993 37.8176 31.001 37.8176 31.0027 37.8176L31.6567 37.53V37.5098C36.5237 35.0798 39.7734 30.1138 40.0037 24.6669C40.0037 24.6652 40.0037 24.6635 40.0037 24.6618C40.0037 24.6601 40.0037 24.6568 40.0037 24.6551V24.6316L40.0054 24.6248ZM37.7963 25.4488C37.7896 25.5027 37.7829 25.5565 37.7762 25.6103C37.7644 25.7028 37.7526 25.7953 37.7392 25.8861C37.7308 25.9449 37.7207 26.0038 37.7106 26.0627C37.6971 26.1484 37.682 26.2342 37.6669 26.32C37.6551 26.3822 37.6433 26.4427 37.6299 26.5049C37.6131 26.5873 37.5979 26.6697 37.5795 26.7505C37.566 26.8127 37.5509 26.8749 37.5357 26.9371C37.5173 27.0178 37.4971 27.0969 37.4769 27.1759C37.4601 27.2381 37.4433 27.3021 37.4265 27.3643C37.4046 27.4416 37.3828 27.5207 37.3609 27.598C37.3424 27.6602 37.3239 27.7241 37.3037 27.7864C37.2802 27.8637 37.255 27.9394 37.2315 28.0168C37.2113 28.079 37.1894 28.1412 37.1676 28.2034C37.1407 28.2791 37.1138 28.3548 37.0869 28.4305C37.065 28.491 37.0415 28.5532 37.0179 28.6138C36.9894 28.6894 36.9591 28.7634 36.9288 28.8391C36.9053 28.8996 36.8801 28.9585 36.8549 29.019C36.8229 29.093 36.791 29.167 36.7574 29.241C36.7305 29.2999 36.7052 29.3587 36.6783 29.4159C36.643 29.4899 36.6077 29.5639 36.5724 29.6379C36.5455 29.6951 36.517 29.7506 36.4884 29.8077C36.4514 29.8817 36.411 29.9557 36.3724 30.0297C36.3438 30.0835 36.3152 30.1374 36.2866 30.1912C36.2446 30.2668 36.2009 30.3425 36.1572 30.4182C36.1286 30.4686 36.1 30.5191 36.0714 30.5679C36.0227 30.6503 35.9723 30.7327 35.9218 30.8134C35.8966 30.8537 35.8714 30.8958 35.8462 30.9378C35.7756 31.0488 35.7033 31.1581 35.6293 31.2674C35.6226 31.2792 35.6142 31.2893 35.6074 31.3011C35.5251 31.4205 35.441 31.5382 35.3553 31.6559C35.33 31.6895 35.3031 31.7232 35.2779 31.7568C35.2174 31.8392 35.1552 31.9199 35.093 32.0006C35.0594 32.0444 35.0241 32.0864 34.9888 32.1301C34.9333 32.1991 34.8761 32.2697 34.819 32.337C34.7803 32.3824 34.7399 32.4278 34.7013 32.4732C34.6458 32.5371 34.5903 32.601 34.5332 32.6649C34.4911 32.712 34.4491 32.7574 34.4071 32.8028C34.3516 32.8633 34.2944 32.9239 34.2373 32.9844C34.1936 33.0298 34.1482 33.0752 34.1028 33.1206C34.0456 33.1778 33.9885 33.2367 33.9296 33.2938C33.8825 33.3393 33.8371 33.383 33.7901 33.4284C33.7312 33.4839 33.6724 33.5394 33.6136 33.5932C33.5648 33.6369 33.516 33.6806 33.4673 33.7244C33.4068 33.7782 33.3463 33.8303 33.284 33.8824C33.2336 33.9245 33.1849 33.9665 33.1327 34.0086C33.0705 34.059 33.0083 34.1111 32.9444 34.1599C32.894 34.2003 32.8419 34.2406 32.7898 34.281C32.7259 34.3298 32.6603 34.3785 32.5964 34.4273C32.5443 34.466 32.4905 34.5047 32.4384 34.5433C32.3728 34.5904 32.3056 34.6375 32.2383 34.6829C32.1846 34.7199 32.1324 34.7569 32.0786 34.7922C32.0097 34.8376 31.9391 34.883 31.8702 34.9268C31.8164 34.9604 31.7626 34.9957 31.7088 35.0293C31.6583 35.0613 31.6062 35.0899 31.5541 35.1218C31.3103 31.9401 30.5975 28.6457 29.4661 25.4774C32.2686 24.8468 35.1132 24.8266 37.7997 25.4253C37.7997 25.4337 37.7997 25.4421 37.798 25.4488H37.7963ZM28.6793 23.4628C28.2994 22.5631 27.8925 21.6836 27.4554 20.8327C30.2697 19.5529 32.8234 17.8325 34.9417 15.7927C36.6834 17.9099 37.6971 20.5014 37.8535 23.2475C34.8795 22.6505 31.7491 22.7245 28.6776 23.4628H28.6793ZM12.387 20.8713C12.4358 20.6746 12.4896 20.4778 12.5484 20.2844C12.5585 20.2491 12.5702 20.2121 12.5803 20.1768C12.6392 19.9868 12.7014 19.7984 12.7686 19.6118C12.7737 19.5983 12.777 19.5865 12.7821 19.5731C12.7905 19.5495 12.7989 19.526 12.8073 19.5024C12.8762 19.3175 12.9485 19.1358 13.0242 18.9542C13.0359 18.9273 13.046 18.9021 13.0578 18.8752C13.0595 18.8701 13.0628 18.8651 13.0645 18.8584C13.1435 18.6751 13.2276 18.4918 13.3167 18.3118C13.3301 18.2832 13.3453 18.2546 13.3587 18.2244C13.4495 18.0428 13.5437 17.8645 13.6428 17.6879C13.658 17.6593 13.6731 17.6324 13.6899 17.6055C13.7874 17.434 13.89 17.2641 13.9959 17.096C14.0077 17.0775 14.0194 17.059 14.0312 17.0405C14.0379 17.0287 14.0463 17.0169 14.0547 17.0052C14.1623 16.837 14.275 16.6722 14.3893 16.5107C14.4095 16.4822 14.4313 16.4519 14.4515 16.4233C14.5692 16.2602 14.6919 16.0987 14.818 15.9407C14.8382 15.9154 14.86 15.8902 14.8802 15.865C15.008 15.7069 15.1391 15.5505 15.2753 15.3975C15.2921 15.3773 15.3106 15.3588 15.3274 15.3386C15.4669 15.1822 15.6115 15.0309 15.7594 14.8812C15.7763 14.8644 15.7914 14.8493 15.8082 14.8324C15.9528 14.6895 16.099 14.5482 16.2504 14.412C16.2638 14.4003 16.2772 14.3868 16.2907 14.375C16.2991 14.3683 16.3058 14.3616 16.3142 14.3548C16.4655 14.2203 16.6202 14.0891 16.7766 13.9597C16.8018 13.9395 16.827 13.9176 16.8522 13.8974C17.0119 13.7696 17.1733 13.6469 17.3398 13.5258C17.3683 13.5056 17.3969 13.4837 17.4272 13.4636C17.5936 13.3442 17.7634 13.2281 17.9366 13.1171C17.9635 13.1003 17.992 13.0818 18.0189 13.065C18.1972 12.9523 18.377 12.843 18.562 12.7388C18.5754 12.732 18.5889 12.7236 18.6023 12.7169C20.766 14.6004 22.7481 17.0052 24.4024 19.7513C20.4113 21.1555 16.1965 21.5625 12.3752 20.9134C12.3786 20.8982 12.382 20.8848 12.3853 20.8696L12.387 20.8713ZM25.5674 11.0756C25.6364 11.0789 25.7053 11.0857 25.7742 11.089C25.9138 11.0974 26.0516 11.1075 26.1895 11.1193C26.2702 11.1277 26.3509 11.1378 26.4316 11.1462C26.556 11.1597 26.6804 11.1748 26.8048 11.1933C26.8905 11.2051 26.9746 11.2202 27.0586 11.2337C27.178 11.2538 27.2957 11.274 27.4134 11.2959C27.4991 11.3127 27.5849 11.3295 27.6706 11.348C27.7866 11.3732 27.9026 11.3985 28.0169 11.4271C28.1027 11.4472 28.1867 11.4691 28.2708 11.491C28.3851 11.5212 28.4994 11.5532 28.6137 11.5868C28.6961 11.6104 28.7785 11.6356 28.8609 11.6608C28.9769 11.6978 29.0929 11.7365 29.2089 11.7768C29.2862 11.8037 29.3635 11.829 29.4409 11.8576C29.5653 11.9046 29.6897 11.9534 29.8124 12.0039C29.878 12.0308 29.9435 12.0543 30.0074 12.0829C30.1839 12.1586 30.3588 12.2376 30.532 12.32C30.5488 12.3284 30.5673 12.3368 30.5841 12.3452C30.7589 12.4293 30.9321 12.5185 31.1019 12.6109C31.1641 12.6446 31.2246 12.6799 31.2851 12.7152C31.4011 12.7808 31.5171 12.8464 31.6331 12.917C31.7037 12.9591 31.771 13.0045 31.8399 13.0482C31.9441 13.1138 32.0467 13.1794 32.1493 13.2483C32.2215 13.2971 32.2921 13.3475 32.3628 13.3963C32.4603 13.4652 32.5578 13.5342 32.6536 13.6065C32.7242 13.6586 32.7931 13.7124 32.8638 13.7663C32.9579 13.8403 33.052 13.9142 33.1445 13.9899C33.2118 14.0454 33.279 14.1026 33.3463 14.1598C33.3816 14.19 33.4169 14.2237 33.4522 14.2539C31.4717 16.161 29.0693 17.7619 26.4181 18.9475C24.7975 16.1946 22.8607 13.7478 20.734 11.755C22.079 11.2908 23.4878 11.0554 24.9404 11.0554C25.1505 11.0554 25.359 11.0604 25.5674 11.0705V11.0756ZM12.0407 23.0289C13.3385 23.2475 14.6751 23.3568 16.0301 23.3568C19.1537 23.3568 22.3799 22.7817 25.4632 21.6499C25.87 22.4319 26.2534 23.2374 26.6098 24.0648C26.4299 24.1254 26.2517 24.1859 26.0735 24.2515C21.5511 25.9248 17.8038 28.903 15.3745 32.7086C13.2192 30.3391 12.0037 27.2331 12.0037 24.0009C12.0037 23.6764 12.0171 23.3518 12.0407 23.0289ZM24.3688 36.928C24.3066 36.9246 24.2444 36.9195 24.1821 36.9162C24.0544 36.9095 23.9283 36.901 23.8005 36.8893C23.7265 36.8825 23.6543 36.8741 23.5803 36.8657C23.466 36.854 23.35 36.8405 23.2356 36.8254C23.1583 36.8153 23.081 36.8035 23.0036 36.7917C22.8944 36.7749 22.7851 36.7581 22.6758 36.7379C22.5968 36.7245 22.5178 36.7093 22.4404 36.6925C22.3329 36.6707 22.2269 36.6488 22.121 36.6252C22.042 36.6084 21.9647 36.5899 21.8873 36.5714C21.7814 36.5462 21.6755 36.5176 21.5713 36.4907C21.4939 36.4705 21.4183 36.4487 21.3426 36.4268C21.2367 36.3965 21.1308 36.3629 21.0249 36.3293C20.9509 36.3057 20.8786 36.2839 20.8047 36.2586C20.6954 36.2216 20.5861 36.1813 20.4785 36.1426C20.4113 36.1174 20.3423 36.0938 20.2751 36.0669C20.1574 36.0215 20.0397 35.9728 19.922 35.9223C19.8666 35.8988 19.8111 35.8769 19.7556 35.8534C19.5875 35.7794 19.421 35.702 19.2563 35.6213C19.2529 35.6213 19.2496 35.6179 19.2462 35.6162C19.0764 35.5338 18.91 35.4464 18.7435 35.3556C18.6948 35.3287 18.646 35.2984 18.5956 35.2715C18.4813 35.2076 18.367 35.142 18.2543 35.0747C18.1938 35.0377 18.1333 34.9991 18.0727 34.9604C17.9736 34.8982 17.8744 34.8359 17.7769 34.7704C17.713 34.7283 17.6491 34.6829 17.5869 34.6392C17.4944 34.5753 17.4036 34.5114 17.3129 34.4441C17.2473 34.397 17.1834 34.3483 17.1195 34.2995C17.0708 34.2625 17.022 34.2238 16.9733 34.1851C19.1403 30.6133 22.6069 27.8166 26.8182 26.2577C27.0099 26.1871 27.2049 26.1215 27.3999 26.0559C28.6003 29.3688 29.3131 32.828 29.4745 36.1224C29.2879 36.1931 29.0996 36.2586 28.9113 36.3192C28.8609 36.336 28.8087 36.3494 28.7583 36.3646C28.6104 36.41 28.4607 36.4554 28.3111 36.4958C28.2371 36.5159 28.1615 36.5328 28.0858 36.5529C27.9581 36.5849 27.8303 36.6152 27.7009 36.6437C27.6202 36.6622 27.5378 36.6774 27.4554 36.6942C27.331 36.7194 27.2066 36.7413 27.0805 36.7631C26.9981 36.7766 26.9141 36.7901 26.83 36.8018C26.7022 36.8203 26.5745 36.8371 26.445 36.8523C26.3643 36.8607 26.2853 36.8708 26.2046 36.8792C26.0634 36.8926 25.9222 36.9027 25.7809 36.9111C25.712 36.9162 25.6448 36.9212 25.5758 36.9246C25.3657 36.9347 25.1539 36.9414 24.942 36.9414C24.7504 36.9414 24.5604 36.9364 24.3704 36.928H24.3688Z" fill="white"/>
</svg>
