<svg width="48" height="48" viewBox="0 0 48 48" fill="none" xmlns="http://www.w3.org/2000/svg">
<path d="M24.0476 0H23.9383C10.7175 0 0 10.7207 0 23.9453V24.0547C0 37.2793 10.7175 48 23.9383 48H24.0476C37.2683 48 47.9859 37.2793 47.9859 24.0547V23.9453C47.9859 10.7207 37.2683 0 24.0476 0Z" fill="black"/>
<path d="M22.1357 24.904C21.7187 24.381 21.2413 23.9807 20.7067 23.71C21.1791 23.4224 21.5859 23.0693 21.9222 22.6489C22.4887 21.9392 22.7762 21.0496 22.7762 20.0036C22.7762 19.1308 22.5459 18.3286 22.0903 17.6207C21.6364 16.9127 20.9605 16.3443 20.0813 15.9306C19.2205 15.5253 18.1832 15.3201 17.0014 15.3201H10.2783V32.6868H17.3107C18.4623 32.6868 19.4912 32.4766 20.3671 32.0629C21.2598 31.6424 21.9558 31.0539 22.4332 30.3156C22.9124 29.574 23.1561 28.7315 23.1561 27.8116C23.1561 26.7336 22.8132 25.7566 22.1357 24.9057V24.904ZM18.5648 21.7391C18.1496 22.0754 17.5427 22.2469 16.7643 22.2469H13.8559V18.3993H16.7643C17.5393 18.3993 18.1429 18.5758 18.5581 18.9256C18.9566 19.2603 19.1499 19.7228 19.1499 20.3349C19.1499 20.947 18.9582 21.4212 18.5648 21.7391ZM13.8559 25.3278H16.9778C17.7949 25.3278 18.4236 25.5262 18.8994 25.9349C19.355 26.3267 19.5769 26.8463 19.5769 27.5257C19.5769 28.2051 19.3718 28.6844 18.9482 29.0426C18.5094 29.4142 17.8789 29.6026 17.072 29.6026H13.8559V25.3278Z" fill="white"/>
<path d="M36.8913 21.9999C36.3499 21.0212 35.5833 20.2493 34.6116 19.7078C33.6416 19.1663 32.5202 18.8922 31.2829 18.8922C30.0455 18.8922 28.8401 19.1747 27.8465 19.7313C26.8513 20.2896 26.0679 21.0918 25.5198 22.1193C24.9717 23.1451 24.6943 24.3492 24.6943 25.6979C24.6943 27.0466 24.9801 28.2523 25.545 29.2765C26.1099 30.3023 26.9 31.1095 27.8953 31.6745C28.8889 32.2396 30.0287 32.5255 31.2846 32.5255C32.8262 32.5255 34.1358 32.1336 35.1782 31.3618C36.2205 30.5899 36.9501 29.5842 37.3486 28.3751L37.3771 28.2893H34.3275L34.309 28.3263C33.7223 29.5153 32.7052 30.1173 31.2829 30.1173C30.2927 30.1173 29.4453 29.8028 28.7645 29.1857C28.1004 28.582 27.7188 27.7748 27.6297 26.7842H37.6024L37.6108 26.7287C37.6747 26.3302 37.7067 25.8795 37.7067 25.3901C37.7067 24.1188 37.4326 22.9786 36.8913 21.9999ZM28.8115 22.1748C29.4605 21.5946 30.2523 21.302 31.1635 21.302C32.1705 21.302 33.0263 21.5996 33.7071 22.1882C34.3695 22.76 34.7209 23.5285 34.7511 24.4703H27.6583C27.7927 23.5134 28.1811 22.7415 28.8132 22.1765L28.8115 22.1748Z" fill="white"/>
<path d="M34.5212 15.7189H27.8789V17.2929H34.5212V15.7189Z" fill="white"/>
</svg>
