<svg width="837" height="670" viewBox="0 0 837 670" fill="none" xmlns="http://www.w3.org/2000/svg">
<g clip-path="url(#clip0_356_1380)">
<mask id="mask0_356_1380" style="mask-type:luminance" maskUnits="userSpaceOnUse" x="-14" y="158" width="781" height="749">
<path d="M-13.3264 906.878H766.496V158.856H-13.3264V906.878Z" fill="white"/>
</mask>
<g mask="url(#mask0_356_1380)">
<path d="M51.7078 769.837H-237.998L-93.1351 640.587L51.7078 769.837Z" fill="#6E74AF"/>
</g>
<path d="M158.85 569.331H-62.8184L48.0234 458.778L158.85 569.331Z" fill="#3C4677"/>
<path d="M294.978 716.785H73.3094L184.136 606.232L294.978 716.785Z" fill="#3C4677"/>
<path d="M-37.448 606.193H184.205L73.3785 716.746L-37.448 606.193Z" fill="#3C4677"/>
<path d="M-107.448 606.193H114.205L3.37851 716.746L-107.448 606.193Z" fill="#3C4677"/>
<path d="M236.654 606.193H458.307L347.48 716.746L236.654 606.193Z" fill="#3C4677"/>
<path d="M568.334 716.745H346.681L457.507 606.191L568.334 716.745Z" fill="#3C4677"/>
<path d="M270.642 458.778H492.31L381.468 569.331L270.642 458.778Z" fill="#3C4677"/>
<path d="M380.668 569.331H602.337L491.495 458.777L380.668 569.331Z" fill="#3C4677"/>
<path d="M177.037 606.08H372.962L275.006 704.27L177.037 606.08Z" fill="#6E74AF"/>
<path d="M500.802 633.138H592.491L546.65 679.345L500.802 633.138Z" fill="#6E74AF"/>
<path d="M592.632 633.138H684.321L638.479 679.345L592.632 633.138Z" fill="#3C4677"/>
<path d="M466.939 421.934H245.286L356.113 311.365L466.939 421.934Z" fill="#6E74AF"/>
<path d="M134.444 311.365H356.113L245.286 421.934L134.444 311.365Z" fill="#6E74AF"/>
<path d="M48.0232 458.778H269.676L158.85 569.331L48.0232 458.778Z" fill="#6E74AF"/>
<path d="M65.4598 274.519H-156.209L-45.3667 163.965L65.4598 274.519Z" fill="#3C4677"/>
<path d="M245.286 421.934H23.6179L134.444 311.365L245.286 421.934Z" fill="#3C4677"/>
<path d="M-87.2084 311.365H134.445L23.6181 421.934L-87.2084 311.365Z" fill="#3C4677"/>
<path d="M-127.208 421.934H94.4446L-16.3819 311.365L-127.208 421.934Z" fill="#3C4677"/>
<path d="M-173.645 458.778H48.0234L-62.8185 569.331L-173.645 458.778Z" fill="#3C4677"/>
</g>
<defs>
<clipPath id="clip0_356_1380">
<rect width="1080" height="670" fill="white" transform="matrix(-1 0 0 -1 837 670)"/>
</clipPath>
</defs>
</svg>
