<svg width="1416" height="536" viewBox="0 0 1416 536" fill="none" xmlns="http://www.w3.org/2000/svg">
<g clip-path="url(#clip0_178_1309)">
<path d="M1663 0H-350.384C-378.293 0 -392.205 33.7055 -372.496 53.4154L624.674 1050.58C642.148 1068.06 670.388 1068.06 687.861 1050.58L1685.11 53.4154C1704.82 33.7055 1690.83 0 1663 0Z" fill="white"/>
<path d="M1092.71 606.001L-108.708 606.002C-132.078 606.002 -143.763 577.587 -127.308 561.111L492 -58.9986L1111.31 561.111C1127.76 577.587 1116.08 606.001 1092.71 606.001Z" fill="#F4B527"/>
<path d="M840.054 -126H-953.054C-977.945 -126 -990.323 -95.9392 -972.777 -78.3922L-56.432 838L859.777 -78.3922C877.323 -95.9392 864.945 -126 840.054 -126Z" fill="#283B75"/>
<path d="M1564.58 360.001H703.421C691.467 360.001 685.523 374.44 693.949 382.867L1134.03 823.001L1574.05 382.867C1582.48 374.44 1576.53 360.001 1564.58 360.001Z" fill="#283B75"/>
<path d="M1471.55 630L217.446 630C193.05 630 180.853 600.346 198.029 583.152L844.5 -64.0001L1490.97 583.152C1508.15 600.346 1495.95 630 1471.55 630Z" fill="#283B75"/>
<path d="M697.445 -114L1951.55 -114C1975.95 -114 1988.15 -84.3466 1970.97 -67.1524L1324.5 580L678.029 -67.1524C660.853 -84.3466 673.05 -114 697.445 -114Z" fill="#283B75"/>
<path d="M1474.43 369L854.565 369C842.508 369 836.479 354.344 844.969 345.846L1164.5 26L1484.03 345.846C1492.52 354.344 1486.49 369 1474.43 369Z" fill="#F4B527"/>
<path d="M470.201 -35.9995L1164.8 -35.9995C1178.31 -35.9995 1185.07 -19.5916 1175.55 -10.0778L827.4 338.1C821.932 343.568 813.068 343.568 807.6 338.1L459.447 -10.0778C449.934 -19.5916 456.689 -35.9995 470.201 -35.9995Z" fill="#374E9D"/>
<path d="M382.366 536L170.634 536C166.515 536 164.456 531.001 167.356 528.102L276.5 419L385.644 528.102C388.544 531.001 386.485 536 382.366 536Z" fill="#F4B527"/>
<path d="M278 422.634L278 634.366C278 638.485 273.001 640.544 270.102 637.644L161 528.5L270.102 419.356C273.001 416.456 278 418.515 278 422.634Z" fill="#F4B527"/>
<path d="M-17.2982 199.065L708.934 925.297C723.061 939.424 712.963 963.649 693.065 963.653L-55.8188 963.818L-55.6543 214.934C-55.6499 195.036 -31.425 184.938 -17.2982 199.065Z" fill="#374E9D"/>
<path d="M311.708 536L161.292 536C158.366 536 156.903 532.454 158.963 530.397L236.5 453L314.037 530.397C316.097 532.453 314.634 536 311.708 536Z" fill="#283B75"/>
</g>
<defs>
<clipPath id="clip0_178_1309">
<rect width="1416" height="536" rx="20" transform="matrix(-1 0 0 1 1416 0)" fill="white"/>
</clipPath>
</defs>
</svg>
