<svg width="1352" height="631" viewBox="0 0 1352 631" fill="none" xmlns="http://www.w3.org/2000/svg">
<rect y="0.175781" width="1352" height="587" rx="47" fill="#F6F8FF"/>
<path d="M815.89 155.8H1065.44L934.379 294.948L812.198 165.232C808.91 161.741 811.217 155.861 815.89 155.861V155.8Z" fill="#374E9D"/>
<path d="M1065.44 122.849H780.874C775.394 122.849 770.087 120.522 766.222 116.418L665.615 9.60748C662.385 6.11653 664.692 0.175781 669.307 0.175781H949.955L1065.44 122.788V122.849Z" fill="#374E9D"/>
<path d="M1352 74.3625L1280.18 0.175781H1306.38C1331.58 0.175781 1352 21.2184 1352 47.1758V74.3625Z" fill="#374E9D"/>
<path d="M1352 204.385L1264.26 295.176L1138.13 164.665C1134.73 161.153 1137.11 155.237 1141.94 155.237V155.176H1352V204.385Z" fill="#F4B527"/>
<path d="M1352 123.176H1098.11L979.301 0.175781H1280.81L1352 73.9164V123.176Z" fill="#F4B527"/>
</svg>
