<svg width="25" height="25" viewBox="0 0 25 25" fill="none" xmlns="http://www.w3.org/2000/svg">
<path d="M11.257 12.1143L16.207 17.0643C16.3026 17.1566 16.3787 17.2669 16.4311 17.3889C16.4836 17.5109 16.5111 17.6421 16.5123 17.7749C16.5135 17.9077 16.4882 18.0394 16.4379 18.1623C16.3876 18.2852 16.3133 18.3968 16.2194 18.4907C16.1256 18.5846 16.0139 18.6589 15.891 18.7091C15.7681 18.7594 15.6364 18.7847 15.5036 18.7836C15.3709 18.7824 15.2396 18.7548 15.1176 18.7024C14.9956 18.65 14.8853 18.5738 14.793 18.4783L9.13605 12.8213C8.94858 12.6338 8.84326 12.3795 8.84326 12.1143C8.84326 11.8492 8.94858 11.5948 9.13605 11.4073L14.793 5.75032C14.9817 5.56816 15.2343 5.46736 15.4964 5.46964C15.7586 5.47192 16.0095 5.57709 16.1949 5.7625C16.3803 5.94791 16.4854 6.19872 16.4877 6.46092C16.49 6.72311 16.3892 6.97571 16.207 7.16432L11.257 12.1143Z" fill="#475569"/>
</svg>
