<svg width="25" height="25" viewBox="0 0 25 25" fill="none" xmlns="http://www.w3.org/2000/svg">
<path d="M13.814 12.1852L8.86396 7.23524C8.68181 7.04664 8.58101 6.79403 8.58329 6.53184C8.58557 6.26964 8.69074 6.01883 8.87615 5.83342C9.06155 5.64801 9.31237 5.54284 9.57456 5.54057C9.83676 5.53829 10.0894 5.63908 10.278 5.82124L15.935 11.4782C16.1224 11.6658 16.2278 11.9201 16.2278 12.1852C16.2278 12.4504 16.1224 12.7047 15.935 12.8922L10.278 18.5492C10.0894 18.7314 9.83676 18.8322 9.57456 18.8299C9.31237 18.8276 9.06155 18.7225 8.87615 18.5371C8.69074 18.3516 8.58557 18.1008 8.58329 17.8386C8.58101 17.5764 8.68181 17.3238 8.86396 17.1352L13.814 12.1852Z" fill="#374E9D"/>
</svg>
