<svg width="250" height="28" viewBox="0 0 250 28" fill="none" xmlns="http://www.w3.org/2000/svg">
<g clip-path="url(#clip0_359_3505)">
<path d="M16.0319 2.40485L13.5505 1.74512L11.4593 9.48867L9.57141 2.49774L7.0899 3.15747L9.12969 10.7107L4.04904 5.6696L2.23247 7.47202L7.80531 13.0015L0.865228 11.1564L0.200317 13.6185L7.78322 15.6345C7.69641 15.263 7.65048 14.8759 7.65048 14.4781C7.65048 11.6625 9.95085 9.38006 12.7885 9.38006C15.6262 9.38006 17.9266 11.6625 17.9266 14.4781C17.9266 14.8733 17.8812 15.258 17.7955 15.6274L24.6869 17.4595L25.3518 14.9974L17.7387 12.9734L24.6793 11.1281L24.0143 8.66602L16.4016 10.6899L21.4822 5.6489L19.6657 3.84648L14.1701 9.29924L16.0319 2.40485Z" fill="#FF4405"/>
<path d="M17.7882 15.6561C17.5754 16.5485 17.1263 17.3502 16.51 17.9926L21.5025 22.9463L23.3191 21.1439L17.7882 15.6561Z" fill="#FF4405"/>
<path d="M16.4596 18.0444C15.8359 18.6765 15.0476 19.1482 14.1637 19.3913L15.9804 26.1184L18.4619 25.4587L16.4596 18.0444Z" fill="#FF4405"/>
<path d="M14.071 19.4159C13.6609 19.5205 13.2311 19.5761 12.7881 19.5761C12.3135 19.5761 11.8539 19.5122 11.4176 19.3927L9.5993 26.126L12.0808 26.7857L14.071 19.4159Z" fill="#FF4405"/>
<path d="M11.3299 19.3679C10.4595 19.1127 9.68526 18.635 9.07427 18.0011L4.06943 22.967L5.88599 24.7694L11.3299 19.3679Z" fill="#FF4405"/>
<path d="M9.03302 17.9572C8.4325 17.3193 7.99508 16.5283 7.78687 15.6496L0.872914 17.4878L1.53782 19.9499L9.03302 17.9572Z" fill="#FF4405"/>
</g>
<path d="M40.2838 7.53027V16.4028L34.5516 7.53027H32.2588V19.7803H34.5516V10.9778L40.2838 19.7803H42.5766V7.53027H40.2838Z" fill="#101828"/>
<path d="M43.6098 9.82277H45.9732V7.53027H43.6098V9.82277ZM43.6451 19.7803V11.0303H45.9379V19.7803H43.6451Z" fill="#101828"/>
<path d="M55.8032 15.4053C55.8032 12.3778 53.6338 10.9428 51.3409 10.9253C49.0304 10.9078 46.8963 12.3778 46.8963 15.4053C46.8963 18.4328 49.0304 19.9028 51.3409 19.8853C53.4397 19.8678 54.886 18.9053 55.5562 17.3128L53.7749 16.5778C53.2281 17.6628 52.3639 18.0478 51.3409 18.0653C50.459 18.0828 49.4537 17.6628 49.2421 16.1053H55.7502C55.7855 15.8778 55.8032 15.6503 55.8032 15.4053ZM51.3409 12.7278C52.2228 12.7453 53.1223 13.2178 53.4045 14.4778H49.2773C49.5772 13.2003 50.4767 12.7103 51.3409 12.7278Z" fill="#101828"/>
<path d="M61.1021 12.6578V10.9253H59.6558V8.58027L57.363 9.28027V10.9253H55.9167V12.6578H57.363V17.1903C57.363 18.9053 57.5041 19.7803 60.1849 19.7803H60.8022V17.7853H60.1849C59.7616 17.7853 59.6558 17.7153 59.6558 17.1903V12.6578H61.1021Z" fill="#101828"/>
<path d="M64.5091 17.8728L69.377 12.9378V11.0303H62.0752V12.9378H66.802L61.9341 17.8728V19.7803H69.4299V17.8728H64.5091Z" fill="#101828"/>
<path d="M70.252 17.3128L72.5625 16.9628C72.7212 17.8378 73.7618 18.1703 74.3968 18.1703C75.0494 18.1703 76.1782 18.0303 76.1782 16.9803C76.1782 14.9328 70.5166 17.4878 70.5166 13.5678C70.5166 11.0478 73.462 10.9078 74.3968 10.9078C75.2787 10.9078 77.8361 11.0478 78.3652 13.0778L76.1782 13.5328C75.9842 12.6053 74.9965 12.4303 74.4673 12.4303C73.9382 12.4303 72.8094 12.5528 72.8094 13.5678C72.8094 15.5978 78.471 13.0078 78.471 16.9803C78.471 19.6578 75.3668 19.8853 74.3968 19.8853C73.5149 19.8853 70.7106 19.6578 70.252 17.3128Z" fill="#101828"/>
<path d="M81.4497 15.4053C81.4497 17.5403 82.5961 18.1878 83.7954 18.1703C84.8713 18.1528 85.6121 17.7153 86.053 16.4903L87.9402 17.4003C87.2524 19.1853 85.5768 19.8678 83.7954 19.8853C81.4849 19.9028 79.1568 18.4328 79.1568 15.4053C79.1568 12.3778 81.4849 10.9078 83.7954 10.9253C85.5768 10.9428 87.2524 11.6253 87.9402 13.4103L86.053 14.3203C85.6121 13.0953 84.8713 12.6578 83.7954 12.6403C82.5961 12.6228 81.4497 13.2703 81.4497 15.4053Z" fill="#101828"/>
<path d="M94.0955 10.8903C92.9138 10.8903 91.8379 11.5028 91.1501 12.8153V7.53027H88.8572V19.7803H91.1501V16.6828C91.1501 12.6753 92.8256 12.3428 93.4429 12.3428C94.4306 12.3428 94.5717 13.3578 94.5717 14.8453V19.7803H96.8646V14.8453C96.8646 12.9903 96.5647 10.8903 94.0955 10.8903Z" fill="#101828"/>
<path d="M106.545 15.4053C106.545 12.3778 104.376 10.9428 102.083 10.9253C99.7723 10.9078 97.6381 12.3778 97.6381 15.4053C97.6381 18.4328 99.7723 19.9028 102.083 19.8853C104.182 19.8678 105.628 18.9053 106.298 17.3128L104.517 16.5778C103.97 17.6628 103.106 18.0478 102.083 18.0653C101.201 18.0828 100.196 17.6628 99.9839 16.1053H106.492C106.527 15.8778 106.545 15.6503 106.545 15.4053ZM102.083 12.7278C102.965 12.7453 103.864 13.2178 104.146 14.4778H100.019C100.319 13.2003 101.219 12.7103 102.083 12.7278Z" fill="#101828"/>
<path d="M151.674 2.33398C149.536 2.33398 147.809 4.02814 147.809 6.12565C147.809 8.20705 149.536 9.90117 151.657 9.91732C151.131 9.90117 150.72 9.48169 150.72 8.96536C150.72 8.44905 151.148 8.01343 151.69 8.01343C153.993 8.01343 159.107 8.01343 161.36 8.01343C162.955 8.01342 164.254 6.73878 164.254 5.17372C164.254 3.60863 162.955 2.33398 161.36 2.33398L151.674 2.33398Z" fill="#5720B7"/>
<path d="M146.976 9.91699C144.838 9.91699 143.111 11.6111 143.111 13.7087C143.111 15.7901 144.838 17.4842 146.959 17.5003C146.433 17.4842 146.022 17.0647 146.022 16.5484C146.022 16.0321 146.449 15.5964 146.992 15.5964C149.294 15.5964 154.408 15.5964 156.661 15.5964C158.256 15.5964 159.556 14.3218 159.556 12.7567C159.556 11.1916 158.256 9.91699 156.661 9.91699L146.976 9.91699Z" fill="#6927DA"/>
<path d="M143.728 17.5C141.437 17.5 139.587 19.3245 139.587 21.5833C139.587 23.8248 141.437 25.6493 143.71 25.6667C143.146 25.6493 142.706 25.1975 142.706 24.6415C142.706 24.0855 143.164 23.6163 143.745 23.6163C146.212 23.6163 151.692 23.6163 154.105 23.6163C155.814 23.6163 157.206 22.2436 157.206 20.5582C157.206 18.8727 155.814 17.5 154.105 17.5L143.728 17.5Z" fill="#7839EE"/>
<path d="M170.115 19.7802V7.53016H178.044V9.63016H172.441V12.5527H177.55V14.6527H172.441V17.6802H178.15V19.7802H170.115Z" fill="#101828"/>
<path d="M179.061 23.2802V11.1002H181.245V12.1502H181.563C181.762 11.8118 182.073 11.5143 182.496 11.2577C182.919 10.9893 183.524 10.8552 184.311 10.8552C185.016 10.8552 185.668 11.0302 186.267 11.3802C186.866 11.7185 187.347 12.2202 187.712 12.8852C188.076 13.5502 188.258 14.3552 188.258 15.3002V15.5802C188.258 16.5252 188.076 17.3302 187.712 17.9952C187.347 18.6602 186.866 19.1677 186.267 19.5177C185.668 19.856 185.016 20.0252 184.311 20.0252C183.783 20.0252 183.336 19.961 182.972 19.8327C182.62 19.716 182.332 19.5643 182.109 19.3777C181.897 19.1793 181.727 18.981 181.598 18.7827H181.281V23.2802H179.061ZM183.642 18.1002C184.335 18.1002 184.904 17.8843 185.351 17.4527C185.809 17.0093 186.038 16.3677 186.038 15.5277V15.3527C186.038 14.5127 185.809 13.8768 185.351 13.4452C184.893 13.0018 184.323 12.7802 183.642 12.7802C182.96 12.7802 182.391 13.0018 181.933 13.4452C181.474 13.8768 181.245 14.5127 181.245 15.3527V15.5277C181.245 16.3677 181.474 17.0093 181.933 17.4527C182.391 17.8843 182.96 18.1002 183.642 18.1002Z" fill="#101828"/>
<path d="M189.415 19.7802V11.1002H191.635V19.7802H189.415ZM190.525 10.0852C190.126 10.0852 189.785 9.95682 189.503 9.70016C189.233 9.44349 189.098 9.10516 189.098 8.68516C189.098 8.26516 189.233 7.92682 189.503 7.67016C189.785 7.41349 190.126 7.28516 190.525 7.28516C190.936 7.28516 191.277 7.41349 191.547 7.67016C191.817 7.92682 191.952 8.26516 191.952 8.68516C191.952 9.10516 191.817 9.44349 191.547 9.70016C191.277 9.95682 190.936 10.0852 190.525 10.0852Z" fill="#101828"/>
<path d="M197.32 20.0252C196.474 20.0252 195.705 19.8502 195.012 19.5002C194.33 19.1502 193.79 18.6427 193.391 17.9777C192.991 17.3127 192.792 16.5077 192.792 15.5627V15.3177C192.792 14.3727 192.991 13.5677 193.391 12.9027C193.79 12.2377 194.33 11.7302 195.012 11.3802C195.705 11.0302 196.474 10.8552 197.32 10.8552C198.154 10.8552 198.87 11.001 199.469 11.2927C200.068 11.5843 200.55 11.9868 200.914 12.5002C201.29 13.0018 201.536 13.5735 201.654 14.2152L199.504 14.6702C199.457 14.3202 199.352 14.0052 199.187 13.7252C199.023 13.4452 198.788 13.2235 198.482 13.0602C198.189 12.8968 197.819 12.8152 197.372 12.8152C196.926 12.8152 196.521 12.9143 196.157 13.1127C195.804 13.2993 195.522 13.5852 195.311 13.9702C195.111 14.3435 195.012 14.8043 195.012 15.3527V15.5277C195.012 16.076 195.111 16.5427 195.311 16.9277C195.522 17.301 195.804 17.5868 196.157 17.7852C196.521 17.9718 196.926 18.0652 197.372 18.0652C198.042 18.0652 198.547 17.896 198.888 17.5577C199.24 17.2077 199.463 16.7527 199.557 16.1927L201.707 16.7002C201.554 17.3185 201.29 17.8843 200.914 18.3977C200.55 18.8993 200.068 19.296 199.469 19.5877C198.87 19.8793 198.154 20.0252 197.32 20.0252Z" fill="#101828"/>
<path d="M205.987 19.9202C205.306 19.9202 204.707 19.7685 204.19 19.4652C203.685 19.1502 203.291 18.7185 203.009 18.1702C202.728 17.6218 202.587 16.9918 202.587 16.2802V11.1002H204.807V16.1052C204.807 16.7585 204.965 17.2485 205.282 17.5752C205.611 17.9018 206.075 18.0652 206.674 18.0652C207.355 18.0652 207.884 17.8435 208.26 17.4002C208.636 16.9452 208.824 16.3152 208.824 15.5102V11.1002H211.044V19.7802H208.859V18.6427H208.542C208.401 18.9343 208.137 19.2202 207.749 19.5002C207.361 19.7802 206.774 19.9202 205.987 19.9202Z" fill="#101828"/>
<path d="M212.633 19.7802V11.1002H214.818V12.0802H215.135C215.264 11.7302 215.476 11.4735 215.769 11.3102C216.075 11.1468 216.427 11.0652 216.826 11.0652H217.884V13.0252H216.791C216.227 13.0252 215.763 13.1768 215.399 13.4802C215.035 13.7718 214.853 14.2268 214.853 14.8452V19.7802H212.633Z" fill="#101828"/>
<path d="M218.738 19.7802V11.1002H220.958V19.7802H218.738ZM219.848 10.0852C219.449 10.0852 219.108 9.95682 218.826 9.70016C218.556 9.44349 218.421 9.10516 218.421 8.68516C218.421 8.26516 218.556 7.92682 218.826 7.67016C219.108 7.41349 219.449 7.28516 219.848 7.28516C220.259 7.28516 220.6 7.41349 220.87 7.67016C221.14 7.92682 221.275 8.26516 221.275 8.68516C221.275 9.10516 221.14 9.44349 220.87 9.70016C220.6 9.95682 220.259 10.0852 219.848 10.0852Z" fill="#101828"/>
<path d="M226.695 20.0252C225.826 20.0252 225.045 19.8502 224.352 19.5002C223.659 19.1502 223.113 18.6427 222.713 17.9777C222.314 17.3127 222.114 16.5135 222.114 15.5802V15.3002C222.114 14.3668 222.314 13.5677 222.713 12.9027C223.113 12.2377 223.659 11.7302 224.352 11.3802C225.045 11.0302 225.826 10.8552 226.695 10.8552C227.564 10.8552 228.345 11.0302 229.038 11.3802C229.731 11.7302 230.278 12.2377 230.677 12.9027C231.076 13.5677 231.276 14.3668 231.276 15.3002V15.5802C231.276 16.5135 231.076 17.3127 230.677 17.9777C230.278 18.6427 229.731 19.1502 229.038 19.5002C228.345 19.8502 227.564 20.0252 226.695 20.0252ZM226.695 18.0652C227.376 18.0652 227.94 17.8493 228.387 17.4177C228.833 16.9743 229.056 16.3443 229.056 15.5277V15.3527C229.056 14.536 228.833 13.9118 228.387 13.4802C227.952 13.0368 227.388 12.8152 226.695 12.8152C226.014 12.8152 225.45 13.0368 225.004 13.4802C224.557 13.9118 224.334 14.536 224.334 15.3527V15.5277C224.334 16.3443 224.557 16.9743 225.004 17.4177C225.45 17.8493 226.014 18.0652 226.695 18.0652Z" fill="#101828"/>
<path d="M235.774 19.9202C235.093 19.9202 234.494 19.7685 233.977 19.4652C233.472 19.1502 233.079 18.7185 232.797 18.1702C232.515 17.6218 232.374 16.9918 232.374 16.2802V11.1002H234.594V16.1052C234.594 16.7585 234.752 17.2485 235.07 17.5752C235.398 17.9018 235.862 18.0652 236.461 18.0652C237.143 18.0652 237.671 17.8435 238.047 17.4002C238.423 16.9452 238.611 16.3152 238.611 15.5102V11.1002H240.831V19.7802H238.646V18.6427H238.329C238.188 18.9343 237.924 19.2202 237.536 19.5002C237.149 19.7802 236.561 19.9202 235.774 19.9202Z" fill="#101828"/>
<path d="M246.05 20.0252C244.911 20.0252 243.977 19.7802 243.248 19.2902C242.52 18.8002 242.08 18.1002 241.927 17.1902L243.971 16.6652C244.053 17.0735 244.188 17.3943 244.376 17.6277C244.576 17.861 244.817 18.0302 245.098 18.1352C245.392 18.2285 245.709 18.2752 246.05 18.2752C246.567 18.2752 246.948 18.1877 247.195 18.0127C247.442 17.826 247.565 17.5985 247.565 17.3302C247.565 17.0618 247.448 16.8577 247.213 16.7177C246.978 16.566 246.602 16.4435 246.085 16.3502L245.592 16.2627C244.981 16.146 244.423 15.9885 243.918 15.7902C243.413 15.5802 243.008 15.2943 242.702 14.9327C242.397 14.571 242.244 14.1043 242.244 13.5327C242.244 12.6693 242.561 12.0102 243.196 11.5552C243.83 11.0885 244.664 10.8552 245.698 10.8552C246.672 10.8552 247.483 11.071 248.129 11.5027C248.775 11.9343 249.198 12.5002 249.398 13.2002L247.336 13.8302C247.242 13.3868 247.048 13.0718 246.755 12.8852C246.473 12.6985 246.12 12.6052 245.698 12.6052C245.275 12.6052 244.952 12.681 244.728 12.8327C244.505 12.9727 244.394 13.171 244.394 13.4277C244.394 13.7077 244.511 13.9177 244.746 14.0577C244.981 14.186 245.298 14.2852 245.698 14.3552L246.191 14.4427C246.849 14.5593 247.442 14.7168 247.97 14.9152C248.511 15.1018 248.934 15.376 249.239 15.7377C249.556 16.0877 249.715 16.566 249.715 17.1727C249.715 18.0827 249.38 18.7885 248.71 19.2902C248.053 19.7802 247.166 20.0252 246.05 20.0252Z" fill="#101828"/>
<defs>
<clipPath id="clip0_359_3505">
<rect width="25.8681" height="25.6667" fill="white" transform="translate(0 1.16699)"/>
</clipPath>
</defs>
</svg>
