<svg width="155" height="167" viewBox="0 0 155 167" fill="none" xmlns="http://www.w3.org/2000/svg">
<mask id="mask0_356_1424" style="mask-type:luminance" maskUnits="userSpaceOnUse" x="0" y="0" width="155" height="167">
<path d="M155 0H0V166.877H155V0Z" fill="white"/>
</mask>
<g mask="url(#mask0_356_1424)">
<path d="M116.611 69.0215H174.194L145.401 97.8559L116.611 69.0215Z" fill="#EBEDF5"/>
<path d="M78.2227 30.5723H135.806L107.016 59.4067L78.2227 30.5723Z" fill="#EBEDF5"/>
<path d="M164.595 59.4067H107.016L135.806 30.5723L164.595 59.4067Z" fill="#EBEDF5"/>
<path d="M135.806 30.5723H193.389L164.595 59.4067L135.806 30.5723Z" fill="#AFB8D8"/>
<path d="M87.8218 97.8549H30.239L59.0324 69.0205L87.8218 97.8549Z" fill="#EBEDF5"/>
<path d="M78.2227 145.914H135.806L107.016 174.749L78.2227 145.914Z" fill="#AFB8D8"/>
<path d="M39.8381 107.465H97.417L68.6275 136.303L39.8381 107.465Z" fill="#AFB8D8"/>
<path d="M126.21 136.303H68.6275L97.417 107.465L126.21 136.303Z" fill="#AFB8D8"/>
<path d="M145.401 97.8559H87.8218L116.611 69.0215L145.401 97.8559Z" fill="#AFB8D8"/>
<path d="M135.806 145.914H193.389L164.595 174.749L135.806 145.914Z" fill="#EBEDF5"/>
<path d="M97.417 107.465H155L126.21 136.303L97.417 107.465Z" fill="#EBEDF5"/>
<path d="M183.789 136.303H126.21L155 107.465L183.789 136.303Z" fill="#EBEDF5"/>
<path d="M202.984 97.8559H145.401L174.194 69.0215L202.984 97.8559Z" fill="#EBEDF5"/>
<path d="M155 107.465H212.579L183.789 136.303L155 107.465Z" fill="#AFB8D8"/>
</g>
</svg>
