<svg width="49" height="48" viewBox="0 0 49 48" fill="none" xmlns="http://www.w3.org/2000/svg">
<path d="M25.0339 0H24.9246C11.7039 0 0.986328 10.7207 0.986328 23.9453V24.0547C0.986328 37.2793 11.7039 48 24.9246 48H25.0339C38.2547 48 48.9722 37.2793 48.9722 24.0547V23.9453C48.9722 10.7207 38.2547 0 25.0339 0Z" fill="url(#paint0_linear_178_969)"/>
<path d="M32.4046 9.76544H17.5564C13.4543 9.76544 10.1172 13.1036 10.1172 17.2068V30.7948C10.1172 34.8981 13.4543 38.2362 17.5564 38.2362H32.4046C36.5066 38.2362 39.8438 34.8981 39.8438 30.7948V17.2068C39.8438 13.1036 36.5066 9.76544 32.4046 9.76544ZM12.7415 17.2068C12.7415 14.5515 14.9018 12.3905 17.5564 12.3905H32.4046C35.0591 12.3905 37.2195 14.5515 37.2195 17.2068V30.7948C37.2195 33.4501 35.0591 35.6111 32.4046 35.6111H17.5564C14.9018 35.6111 12.7415 33.4501 12.7415 30.7948V17.2068Z" fill="white"/>
<path d="M24.9803 30.9211C28.7949 30.9211 31.9 27.8167 31.9 23.9993C31.9 20.1819 28.7966 17.0776 24.9803 17.0776C21.164 17.0776 18.0605 20.1819 18.0605 23.9993C18.0605 27.8167 21.164 30.9211 24.9803 30.9211ZM24.9803 19.7043C27.3491 19.7043 29.2757 21.6315 29.2757 24.001C29.2757 26.3705 27.3491 28.2977 24.9803 28.2977C22.6115 28.2977 20.6849 26.3705 20.6849 24.001C20.6849 21.6315 22.6115 19.7043 24.9803 19.7043Z" fill="white"/>
<path d="M32.5412 18.1958C33.5684 18.1958 34.4056 17.36 34.4056 16.3309C34.4056 15.3017 33.5701 14.4659 32.5412 14.4659C31.5123 14.4659 30.6768 15.3017 30.6768 16.3309C30.6768 17.36 31.5123 18.1958 32.5412 18.1958Z" fill="white"/>
<defs>
<linearGradient id="paint0_linear_178_969" x1="7.99684" y1="40.9874" x2="41.9717" y2="7.02426" gradientUnits="userSpaceOnUse">
<stop stop-color="#FAAD4F"/>
<stop offset="0.35" stop-color="#DD2A7B"/>
<stop offset="0.62" stop-color="#9537B0"/>
<stop offset="1" stop-color="#515BD4"/>
</linearGradient>
</defs>
</svg>
