<svg width="49" height="48" viewBox="0 0 49 48" fill="none" xmlns="http://www.w3.org/2000/svg">
<path d="M25.0193 0H24.91C11.6892 0 0.97168 10.7207 0.97168 23.9453V24.0547C0.97168 37.2793 11.6892 48 24.91 48H25.0193C38.24 48 48.9576 37.2793 48.9576 24.0547V23.9453C48.9576 10.7207 38.24 0 25.0193 0Z" fill="#007EBB"/>
<path d="M12.4152 15.9557C11.7831 15.3688 11.4688 14.6423 11.4688 13.778C11.4688 12.9136 11.7848 12.1551 12.4152 11.5666C13.0474 10.9797 13.8611 10.6854 14.858 10.6854C15.8549 10.6854 16.6367 10.9797 17.2671 11.5666C17.8993 12.1535 18.2136 12.8917 18.2136 13.778C18.2136 14.6642 17.8976 15.3688 17.2671 15.9557C16.635 16.5426 15.8331 16.8369 14.858 16.8369C13.8829 16.8369 13.0474 16.5426 12.4152 15.9557ZM17.6824 19.3224V37.3163H11.9983V19.3224H17.6824Z" fill="#FEFFFC"/>
<path d="M36.6039 21.1C37.843 22.4453 38.4617 24.2918 38.4617 26.6428V36.9985H33.0634V27.3726C33.0634 26.187 32.7558 25.2655 32.1421 24.6096C31.5285 23.9538 30.7014 23.6242 29.6658 23.6242C28.6302 23.6242 27.803 23.9521 27.1893 24.6096C26.5757 25.2655 26.2681 26.187 26.2681 27.3726V36.9985H20.8379V19.272H26.2681V21.623C26.8178 20.8393 27.5592 20.2205 28.4906 19.7647C29.422 19.309 30.4694 19.082 31.6344 19.082C33.709 19.082 35.3666 19.7546 36.6039 21.1Z" fill="#FEFFFC"/>
</svg>
