<svg width="72" height="54" viewBox="0 0 72 54" fill="none" xmlns="http://www.w3.org/2000/svg">
<path d="M50.1997 43.5256H21.6367V51.4695H50.1997V43.5256Z" fill="white"/>
<path d="M50.3474 51.6171H21.4893V43.378H50.3474V51.6171ZM21.7844 51.3219H50.0522V43.6731H21.7844V51.3219Z" fill="#212121"/>
<path d="M56.5425 51.4695H15.293C15.0934 51.4695 14.9316 51.6312 14.9316 51.8308V52.8808C14.9316 53.0804 15.0934 53.2421 15.293 53.2421H56.5425C56.7421 53.2421 56.9039 53.0804 56.9039 52.8808V51.8308C56.9039 51.6312 56.7421 51.4695 56.5425 51.4695Z" fill="white"/>
<path d="M56.5427 53.3897H15.2931C15.0124 53.3897 14.7842 53.1615 14.7842 52.8808V51.8308C14.7842 51.5501 15.0124 51.3219 15.2931 51.3219H56.5427C56.8233 51.3219 57.0516 51.5501 57.0516 51.8308V52.8808C57.0516 53.1615 56.8233 53.3897 56.5427 53.3897ZM15.2931 51.617C15.1753 51.617 15.0793 51.713 15.0793 51.8308V52.8808C15.0793 52.9986 15.1753 53.0946 15.2931 53.0946H56.5427C56.6605 53.0946 56.7564 52.9986 56.7564 52.8808V51.8308C56.7564 51.713 56.6605 51.617 56.5427 51.617H15.2931Z" fill="#212121"/>
<path d="M50.1984 43.5255H21.6357V48.8644H50.1984V43.5255Z" fill="#212121"/>
<path d="M50.248 48.9136H21.5869V43.4763H50.248V48.9136ZM21.6853 48.8152H50.1496V43.5747H21.6853V48.8152Z" fill="black"/>
<path d="M71.1047 0.147583H0.730398C0.408451 0.147583 0.147461 0.408573 0.147461 0.730521V42.9426C0.147461 43.2645 0.408451 43.5255 0.730398 43.5255H71.1047C71.4267 43.5255 71.6876 43.2645 71.6876 42.9426V0.730521C71.6876 0.408573 71.4267 0.147583 71.1047 0.147583Z" fill="white"/>
<path d="M71.1048 43.6733H0.730516C0.327626 43.6733 0 43.3457 0 42.9428V0.730517C0 0.327626 0.327626 0 0.730516 0H71.1048C71.5077 0 71.8353 0.327626 71.8353 0.730517V42.9426C71.8353 43.3455 71.5077 43.6731 71.1048 43.6731V43.6733ZM0.730516 0.295158C0.490455 0.295158 0.295158 0.490455 0.295158 0.730517V42.9426C0.295158 43.1826 0.490455 43.3779 0.730516 43.3779H71.1048C71.3449 43.3779 71.5402 43.1826 71.5402 42.9426V0.730517C71.5402 0.490455 71.3449 0.295158 71.1048 0.295158H0.730516Z" fill="#212121"/>
<path d="M68.9187 1.53427H2.91738C2.23382 1.53427 1.67969 2.08841 1.67969 2.77197V38.266C1.67969 38.9495 2.23382 39.5037 2.91738 39.5037H68.9187C69.6022 39.5037 70.1564 38.9495 70.1564 38.266V2.77197C70.1564 2.08841 69.6022 1.53427 68.9187 1.53427Z" fill="white"/>
<path d="M68.9188 39.6516H2.9175C2.15378 39.6516 1.53223 39.0303 1.53223 38.2663V2.77207C1.53223 2.00835 2.15353 1.3868 2.9175 1.3868H68.9188C69.6825 1.3868 70.3041 2.0081 70.3041 2.77207V38.2663C70.3041 39.03 69.6828 39.6516 68.9188 39.6516ZM2.9175 1.68195C2.31636 1.68195 1.82738 2.17093 1.82738 2.77207V38.2663C1.82738 38.8675 2.31636 39.3564 2.9175 39.3564H68.9188C69.5199 39.3564 70.0089 38.8675 70.0089 38.2663V2.77207C70.0089 2.17093 69.5199 1.68195 68.9188 1.68195H2.9175Z" fill="#212121"/>
<path d="M70.1564 2.73507V6.22335H1.67969V2.73507C1.67969 2.07195 2.21737 1.53427 2.88049 1.53427H68.9553C69.6185 1.53427 70.1561 2.07195 70.1561 2.73507H70.1564Z" fill="#5555F2"/>
<path d="M70.3041 6.37103H1.53223V2.73518C1.53223 1.99162 2.13705 1.3868 2.88061 1.3868H68.9555C69.699 1.3868 70.3038 1.99162 70.3038 2.73518V6.37103H70.3041ZM1.82738 6.07587H70.0089V2.73518C70.0089 2.15445 69.5364 1.68195 68.9557 1.68195H2.88061C2.29988 1.68195 1.82738 2.15445 1.82738 2.73518V6.07587Z" fill="#212121"/>
<path d="M4.43864 4.93528C4.95973 4.93528 5.38216 4.51285 5.38216 3.99176C5.38216 3.47066 4.95973 3.04823 4.43864 3.04823C3.91755 3.04823 3.49512 3.47066 3.49512 3.99176C3.49512 4.51285 3.91755 4.93528 4.43864 4.93528Z" fill="#212121"/>
<path d="M8.37028 4.93529C8.89137 4.93529 9.3138 4.51286 9.3138 3.99177C9.3138 3.47068 8.89137 3.04825 8.37028 3.04825C7.84919 3.04825 7.42676 3.47068 7.42676 3.99177C7.42676 4.51286 7.84919 4.93529 8.37028 4.93529Z" fill="#8AA6FF"/>
<path d="M12.3019 4.93529C12.823 4.93529 13.2454 4.51286 13.2454 3.99177C13.2454 3.47068 12.823 3.04825 12.3019 3.04825C11.7808 3.04825 11.3584 3.47068 11.3584 3.99177C11.3584 4.51286 11.7808 4.93529 12.3019 4.93529Z" fill="white"/>
<path d="M36.9511 41.642C36.9511 42.173 36.6006 42.6222 36.1183 42.7705C36.0083 42.8044 35.8915 42.8226 35.7705 42.8226C35.1184 42.8226 34.5898 42.294 34.5898 41.642C34.5898 41.2757 34.7566 40.9486 35.0183 40.7322C35.2227 40.5629 35.4847 40.4613 35.7705 40.4613C36.4225 40.4613 36.9511 40.9899 36.9511 41.642Z" fill="black"/>
<path d="M35.7704 42.8841C35.0854 42.8841 34.5283 42.3269 34.5283 41.6419C34.5283 41.2705 34.6926 40.9218 34.9792 40.6846C35.201 40.5009 35.4822 40.3998 35.7704 40.3998C36.4555 40.3998 37.0126 40.9569 37.0126 41.6419C37.0126 42.1909 36.6603 42.6681 36.1362 42.8292C36.0184 42.8656 35.8951 42.8841 35.7704 42.8841ZM35.7704 40.5228C35.5107 40.5228 35.2574 40.614 35.0574 40.7796C34.7991 40.9931 34.6513 41.3074 34.6513 41.6419C34.6513 42.2591 35.1533 42.7611 35.7704 42.7611C35.8831 42.7611 35.9938 42.7444 36.1 42.7116C36.5723 42.5665 36.8896 42.1366 36.8896 41.6419C36.8896 41.0248 36.3876 40.5228 35.7704 40.5228Z" fill="black"/>
<path d="M37.2587 41.359C37.2587 41.8901 36.9082 42.3392 36.4259 42.4875C36.3159 42.5215 36.1991 42.5397 36.0781 42.5397C35.426 42.5397 34.8975 42.0111 34.8975 41.359C34.8975 40.9928 35.0642 40.6657 35.3259 40.4492C35.5303 40.28 35.7923 40.1784 36.0781 40.1784C36.7301 40.1784 37.2587 40.707 37.2587 41.359Z" fill="white"/>
<path d="M36.0782 42.6873C35.3457 42.6873 34.75 42.0916 34.75 41.3591C34.75 40.9619 34.9256 40.589 35.2321 40.3356C35.4694 40.1391 35.77 40.0309 36.0782 40.0309C36.8107 40.0309 37.4064 40.6266 37.4064 41.3591C37.4064 41.9462 37.0299 42.4563 36.4693 42.6288C36.3434 42.6676 36.2115 42.6873 36.0782 42.6873ZM36.0782 40.326C35.8384 40.326 35.6047 40.4102 35.4203 40.5629C35.1819 40.7599 35.0452 41.0502 35.0452 41.3591C35.0452 41.9288 35.5086 42.3921 36.0782 42.3921C36.182 42.3921 36.2846 42.3769 36.3825 42.3466C36.8183 42.2126 37.1113 41.8159 37.1113 41.3591C37.1113 40.7894 36.6479 40.326 36.0782 40.326Z" fill="#212121"/>
<path d="M42.7872 14.5495H42.7852C41.942 14.5426 41.0233 14.5418 40.0552 14.547H40.054C39.9256 14.547 39.8211 14.4432 39.8203 14.3146C39.8196 14.1854 39.9236 14.0804 40.0528 14.0797C41.0231 14.0745 41.9437 14.0753 42.7891 14.0821C42.9183 14.0831 43.0218 14.1886 43.0208 14.3178C43.0198 14.4462 42.9153 14.5495 42.7872 14.5495Z" fill="#212121"/>
<path d="M20.887 14.5495C20.7581 14.5495 20.6536 14.4453 20.6533 14.3161C20.6533 14.187 20.7576 14.0822 20.8867 14.0822C25.4595 14.0758 30.4464 14.0743 36.5808 14.0778C36.7099 14.0778 36.8145 14.1826 36.8145 14.3114C36.8145 14.4406 36.7097 14.5451 36.5808 14.5451C30.4467 14.5417 25.46 14.5431 20.8875 14.5495H20.8872H20.887Z" fill="#212121"/>
<path d="M19.8683 14.5372H19.8678C16.169 14.5299 12.4158 14.5299 8.7121 14.5372H8.7116C8.5896 14.5372 8.49048 14.4384 8.49023 14.3164C8.49023 14.1941 8.58887 14.0948 8.71111 14.0945C12.4153 14.0871 16.1693 14.0871 19.8686 14.0945C19.9908 14.0945 20.0897 14.1941 20.0895 14.3164C20.0895 14.4384 19.9901 14.5372 19.8681 14.5372H19.8683Z" fill="#5555F2"/>
<path d="M45.5419 18.0177H45.5397C44.7629 18.0108 43.9166 18.0101 43.0242 18.0155H43.0227C42.8943 18.0155 42.7898 17.9117 42.7891 17.7833C42.7883 17.6542 42.8924 17.5489 43.0213 17.5481C43.9161 17.5427 44.7649 17.5435 45.5439 17.5504C45.673 17.5516 45.7766 17.6571 45.7756 17.786C45.7743 17.9144 45.6701 18.0177 45.5419 18.0177Z" fill="#212121"/>
<path d="M24.2024 18.0177C24.0735 18.0177 23.969 17.9134 23.9688 17.7842C23.9688 17.6551 24.073 17.5503 24.2022 17.5503C28.8699 17.5439 33.8964 17.5425 40.0212 17.5461C40.1503 17.5461 40.2548 17.6509 40.2546 17.7801C40.2546 17.9089 40.1498 18.0135 40.0209 18.0135C33.8966 18.0098 28.8703 18.0113 24.2029 18.0177H24.2027H24.2024Z" fill="#212121"/>
<path d="M23.2536 18.0177H23.2534C18.4239 18.0105 13.5314 18.0105 8.71243 18.0177H8.71218C8.5833 18.0177 8.47876 17.9134 8.47852 17.7842C8.47852 17.6551 8.5828 17.5503 8.71194 17.5503C13.5316 17.5432 18.4244 17.5432 23.2544 17.5503C23.3835 17.5503 23.4878 17.6554 23.4878 17.7842C23.4878 17.9131 23.383 18.0177 23.2541 18.0177H23.2536Z" fill="#212121"/>
<path d="M40.2783 21.4735H40.2771C39.0145 21.4661 37.7296 21.4661 36.458 21.4735H36.4567C36.335 21.4735 36.2361 21.3751 36.2354 21.2533C36.2346 21.1311 36.3333 21.0315 36.4555 21.0307C37.7289 21.0234 39.0157 21.0234 40.2798 21.0307C40.402 21.0315 40.5006 21.1311 40.4999 21.2533C40.4992 21.3751 40.4003 21.4735 40.2785 21.4735H40.2783Z" fill="#5555F2"/>
<path d="M34.1447 21.4858C25.7042 21.4787 17.1476 21.4787 8.71218 21.4858C8.5833 21.4858 8.47852 21.3813 8.47852 21.2524C8.47852 21.1233 8.58305 21.0187 8.71194 21.0185C17.1473 21.0114 25.7044 21.0114 34.1452 21.0185C34.2743 21.0185 34.3789 21.1233 34.3786 21.2524C34.3786 21.3813 34.2739 21.4858 34.145 21.4858H34.1447Z" fill="#212121"/>
<path d="M31.2639 26.1064H9.37296C8.87119 26.1064 8.46289 25.6981 8.46289 25.1964C8.46289 24.6946 8.87119 24.2863 9.37296 24.2863H31.2639C31.7656 24.2863 32.1739 24.6946 32.1739 25.1964C32.1739 25.6981 31.7656 26.1064 31.2639 26.1064ZM9.37296 24.7536C9.12896 24.7536 8.93022 24.9524 8.93022 25.1964C8.93022 25.4404 9.12896 25.6391 9.37296 25.6391H31.2639C31.5079 25.6391 31.7066 25.4404 31.7066 25.1964C31.7066 24.9524 31.5079 24.7536 31.2639 24.7536H9.37296Z" fill="#212121"/>
</svg>
