<svg width="158" height="140" viewBox="0 0 158 140" fill="none" xmlns="http://www.w3.org/2000/svg">
<rect y="39.0217" width="59" height="100" rx="11" fill="#F4B527"/>
<path d="M23.3949 83.9583V87.7547L13.4383 90.6916V88.6382L23.3949 91.575V95.3714L11.1938 91.3601V87.9696L23.3949 83.9583ZM33.5742 80.0664L28.9421 99.2633H25.8143L30.4464 80.0664H33.5742ZM35.98 95.3714V91.575L45.9366 88.6382V90.6916L35.98 87.7547V83.9583L48.181 87.9696V91.3601L35.98 95.3714Z" fill="white"/>
<rect x="20" y="45.0217" width="18" height="6" rx="3" fill="white"/>
<rect x="104.939" y="0.0581055" width="59" height="100" rx="11" transform="rotate(27.3475 104.939 0.0581055)" fill="#374E9D"/>
<path d="M105.076 50.7197L103.331 54.0918L93.1385 52.1265L94.0818 50.3026L101.577 57.4851L99.8325 60.8572L90.8378 51.6892L92.3954 48.6777L105.076 50.7197ZM115.905 51.939L102.972 66.8625L100.194 65.4256L113.127 50.5021L115.905 51.939ZM111.011 66.6386L112.755 63.2665L122.948 65.2318L122.005 67.0557L114.51 59.8732L116.254 56.5011L125.249 65.6691L123.691 68.6806L111.011 66.6386Z" fill="#F4B527"/>
<rect x="119.947" y="14.5752" width="18" height="6" rx="3" transform="rotate(27.3475 119.947 14.5752)" fill="#F4B527"/>
</svg>
