<svg width="73" height="456" viewBox="0 0 73 456" fill="none" xmlns="http://www.w3.org/2000/svg">
<path d="M11.6661 112.706L11.6661 2.41526C11.6661 0.267812 14.2678 -0.80591 15.7821 0.708313L69.2203 54.1466C71.1062 56.0325 71.1062 59.0885 69.2203 60.9744L15.782 114.413C14.2678 115.927 11.6661 114.853 11.6661 112.706Z" fill="#6E74AF"/>
<path d="M11.6667 385.376L11.6667 269.249L72.6348 330.217L15.7826 387.069C14.2684 388.583 11.6667 387.51 11.6667 385.362L11.6667 385.376Z" fill="#6E74AF"/>
<path d="M11.6667 249.068L11.6667 132.941L72.6348 193.909L15.7826 250.761C14.2684 252.276 11.6667 251.202 11.6667 249.054L11.6667 249.068Z" fill="#3C4677"/>
</svg>
